<svg xmlns="http://www.w3.org/2000/svg" width="1200" height="720" viewBox="0 0 1200 720">
  <rect width="1200" height="720" fill="#1e1e2e"/>
  <rect x="24" y="24" width="1152" height="672" fill="#11111b" stroke="#313244" stroke-width="2"/>
  <rect x="40" y="40" width="1120" height="120" fill="#1f1f2f" stroke="#313244" stroke-width="2"/>
  <rect x="40" y="176" width="540" height="240" fill="#1f1f2f" stroke="#313244" stroke-width="2"/>
  <rect x="620" y="176" width="540" height="240" fill="#1f1f2f" stroke="#313244" stroke-width="2"/>
  <rect x="40" y="432" width="1120" height="232" fill="#1f1f2f" stroke="#313244" stroke-width="2"/>
  <rect x="72" y="72" width="240" height="16" fill="#cdd6f4"/>
  <rect x="72" y="104" width="320" height="12" fill="#45475a"/>
  <rect x="72" y="200" width="120" height="12" fill="#89b4fa"/>
  <rect x="72" y="224" width="200" height="10" fill="#45475a"/>
  <rect x="72" y="248" width="160" height="10" fill="#45475a"/>
  <rect x="72" y="280" width="200" height="10" fill="#45475a"/>
  <rect x="652" y="200" width="120" height="12" fill="#f5c2e7"/>
  <rect x="652" y="224" width="240" height="10" fill="#45475a"/>
  <rect x="652" y="248" width="200" height="10" fill="#45475a"/>
  <rect x="652" y="280" width="220" height="10" fill="#45475a"/>
  <rect x="72" y="472" width="200" height="12" fill="#a6e3a1"/>
  <rect x="72" y="496" width="320" height="10" fill="#45475a"/>
  <rect x="72" y="520" width="280" height="10" fill="#45475a"/>
  <rect x="72" y="544" width="300" height="10" fill="#45475a"/>
  <rect x="72" y="568" width="240" height="10" fill="#45475a"/>
  <rect x="72" y="592" width="260" height="10" fill="#45475a"/>
</svg>
